<?xml version="1.0" encoding="UTF-8" standalone="no"?>
<svg xmlns="http://www.w3.org/2000/svg" xmlns:rdf="http://www.w3.org/1999/02/22-rdf-syntax-ns#" xmlns:cc="http://creativecommons.org/ns#" xmlns:dc="http://purl.org/dc/elements/1.1/" version="1.1" viewBox="0 0 74 44" width="74" height="44">
  <metadata>
    <rdf:RDF>
      <cc:Work rdf:about="">
        <dc:format>image/svg+xml</dc:format>
        <dc:type rdf:resource="http://purl.org/dc/dcmitype/StillImage"/>
        <dc:title>ClinicoPath module icon</dc:title>
        <dc:creator><cc:Agent><dc:title>Serdar Balci</dc:title></cc:Agent></dc:creator>
        <cc:license rdf:resource="http://creativecommons.org/publicdomain/zero/1.0/"/>
      </cc:Work>
      <cc:License rdf:about="http://creativecommons.org/publicdomain/zero/1.0/">
        <cc:permits rdf:resource="http://creativecommons.org/ns#Reproduction"/>
        <cc:permits rdf:resource="http://creativecommons.org/ns#Distribution"/>
        <cc:permits rdf:resource="http://creativecommons.org/ns#DerivativeWorks"/>
      </cc:License>
    </rdf:RDF>
  </metadata>
  <!-- Background reference axis -->
  <path d="M 8 38 L 66 38" stroke="#3e6da9" stroke-width="1.5" stroke-dasharray="1, 3" fill="none"/>
  
  <!-- Clinical Medical Cross (Pathology / Medicine) -->
  <path d="M 17 9 L 23 9 L 23 15 L 29 15 L 29 21 L 23 21 L 23 27 L 17 27 L 17 21 L 11 21 L 11 15 L 17 15 Z" 
        fill="#b0cbf3" stroke="#3e6da9" stroke-width="2" stroke-linejoin="round"/>
  
  <!-- Ascending Clinical Evidence Curve -->
  <path d="M 24 37 C 36 36, 44 26, 64 12" 
        fill="none" stroke="#6b9de8" stroke-width="2.5" stroke-linecap="round"/>
  
  <!-- Diagnostic Data / Cohort Markers -->
  <circle cx="43" cy="27" r="3" fill="#ffffff" stroke="#e6ac40" stroke-width="2"/>
  <circle cx="54" cy="18" r="3" fill="#ffffff" stroke="#6b9de8" stroke-width="2"/>
  <circle cx="64" cy="12" r="3" fill="#ffffff" stroke="#3e6da9" stroke-width="2"/>
  
  <!-- Pathology summary bars at base -->
  <rect x="36" y="32" width="4" height="6" fill="#e6ac40" stroke="#e6ac40" stroke-width="1" rx="0.5"/>
  <rect x="44" y="34" width="4" height="4" fill="#9f9f9f" stroke="#9f9f9f" stroke-width="1" rx="0.5"/>
  <rect x="52" y="31" width="4" height="7" fill="#6b9de8" stroke="#6b9de8" stroke-width="1" rx="0.5"/>
</svg>
